<svg width="152" height="92" viewBox="0 0 152 92" fill="none" xmlns="http://www.w3.org/2000/svg">
<path d="M42.7329 33.3704C42.5613 38.7688 45.2591 41.1594 45.3258 42.6777C45.2941 42.9867 45.1888 43.2836 45.0188 43.5436C44.8488 43.8035 44.619 44.019 44.3487 44.1721L41.2983 46.3076C40.9035 46.5844 40.4381 46.7431 39.9565 46.7652C39.8541 46.7604 38.0047 47.2014 35.0758 40.6613C33.2888 42.8921 31.0152 44.6844 28.429 45.901C25.8427 47.1176 23.0124 47.7263 20.1547 47.6804C16.2749 47.8926 5.76032 45.4782 6.3013 34.2832C5.92238 25.1595 14.4184 19.4917 23.2052 19.9708C24.8972 19.9756 28.3528 20.059 34.4037 21.4652V17.7423C35.0448 11.4358 30.9005 6.54262 23.7247 7.27672C23.1527 7.2791 19.1013 7.15755 12.8002 9.68635C11.0462 10.492 10.8222 10.3585 10.2383 10.3585C8.47238 10.3585 9.19924 5.23889 9.53766 4.5906C10.7793 3.06522 18.0837 0.217029 25.2523 0.257547C30.0455 -0.166398 34.8129 1.31304 38.5242 4.3761C40.0329 6.06375 41.1838 8.0397 41.9076 10.1846C42.6314 12.3295 42.9129 14.5989 42.7353 16.8557L42.7329 33.3704ZM22.1375 41.0903C29.8662 40.9783 33.1383 36.3306 33.8842 33.828C34.4705 31.4327 34.3727 29.9168 34.3727 27.2974C32.0682 26.7445 28.7508 26.1415 24.9449 26.1367C21.3344 25.865 14.7401 27.4786 14.9975 33.8256C14.702 37.8274 17.6476 41.3096 22.1375 41.0903ZM62.8708 46.5841C60.9976 46.7557 60.1254 45.4257 59.8489 44.1125L47.9807 4.86946C47.7495 4.20687 47.597 3.52283 47.5231 2.82449C47.4793 2.53658 47.5516 2.24306 47.7241 2.00844C47.8966 1.77381 48.1552 1.61726 48.443 1.57319C48.5002 1.56366 47.9354 1.57319 53.7456 1.57319C55.838 1.36345 56.5196 3.0104 56.7365 4.0448L65.2492 37.6105L73.1518 4.0448C73.2781 3.27734 73.8525 1.40636 76.2023 1.60418H80.2918C80.809 1.56128 82.9395 1.48501 83.3137 4.07578L91.2783 38.0705L100.065 4.07578C100.179 3.5562 100.713 1.36584 103.087 1.60418H107.787C107.989 1.5732 109.252 1.41112 109.038 3.64915C108.935 4.09008 109.85 1.10843 96.4664 44.1435C96.1924 45.4567 95.3177 46.7867 93.4446 46.6151H88.9904C86.3832 46.8891 86.009 44.3127 85.9685 44.0529L78.0659 11.369L70.2539 44.0195C70.2157 44.2793 69.8416 46.8558 67.232 46.5817H62.8708V46.5841ZM128.046 47.9259C126.645 47.9283 119.962 47.8544 114.376 44.9967C113.82 44.7611 113.346 44.3655 113.014 43.8601C112.683 43.3548 112.509 42.7624 112.515 42.1581V39.5959C112.515 37.5819 113.992 37.9513 114.619 38.1921C117.012 39.1597 118.547 39.8938 121.485 40.4801C130.219 42.2749 134.061 39.932 135.002 39.4124C138.136 37.5509 138.384 33.2917 136.254 31.0823C133.756 28.9873 132.564 28.9086 123.592 26.0771C122.486 25.7697 113.177 22.8333 113.156 13.5975C113.01 6.86677 119.126 0.207494 129.724 0.262313C132.743 0.25993 140.789 1.24667 142.967 3.98522C143.289 4.48335 143.448 5.06967 143.425 5.66314V8.07278C143.425 9.13102 143.038 9.66014 142.264 9.66014C140.427 9.45516 137.166 6.99786 130.548 7.09796C128.906 7.01216 121.042 7.31485 121.394 13.0494C121.292 17.5683 127.736 19.2629 128.473 19.4584C137.162 22.073 140.067 22.5068 143.515 26.5085C147.6 31.8116 145.398 38.0204 144.552 39.7222C140.005 48.6577 128.246 47.9307 128.046 47.9259ZM137.626 72.9185C120.937 85.2455 96.7095 91.8071 76.0235 91.8071C48.1119 91.9912 21.1409 81.7269 0.41247 63.0321C-1.14374 61.6282 0.228965 59.7048 2.12121 60.775C25.1152 73.9294 51.1492 80.8412 77.6393 80.8243C97.4215 80.7182 116.988 76.7047 135.215 69.0144C138.022 67.8227 140.403 70.8735 137.626 72.9185ZM144.583 64.9841C142.447 62.2384 130.455 63.7018 125.086 64.3429C123.468 64.5265 123.194 63.1226 124.659 62.0858C134.209 55.3717 149.893 57.2952 151.694 59.5523C153.493 61.8094 151.206 77.5256 142.266 85.0334C140.894 86.1941 139.58 85.5816 140.191 84.0562C142.202 78.9914 146.718 67.7322 144.583 64.9841Z" fill="#737373"/>
</svg>
