<svg width="150" height="50" viewBox="0 0 150 50" fill="none" xmlns="http://www.w3.org/2000/svg">
<g clip-path="url(#clip0_25_2685)">
<path d="M34.142 46.9484L43.0587 47.1362C39.9856 46.0564 37.0056 44.7418 34.142 43.1925V46.9484ZM47.5752 45.7043V46.9484L43.0587 47.1362C51.5563 50.0704 59.3323 50.4695 65.106 48.8263C60.4731 48.8733 54.4432 48.216 47.5752 45.7043ZM142.772 18.662C146.474 18.662 149.501 15.6338 149.501 11.878C149.501 8.12209 146.497 6.12678 142.772 6.12678C139.071 6.12678 136.044 8.14556 136.044 11.878C136.044 15.6104 139.047 18.662 142.772 18.662ZM136.021 46.9484H149.501V21.0094H136.021V46.9484ZM118.862 46.9484H132.342V1.10331L118.862 7.51176V46.9484ZM111.645 18.9202C107.408 14.6479 99.9115 14.9061 99.9115 14.9061C99.9115 14.9061 92.3916 14.6479 88.1777 18.9202C83.9405 23.1925 84.2665 26.878 84.2665 31.2676C84.2665 35.6573 83.9405 39.3193 88.1777 43.5916C92.4149 47.8639 99.9115 47.6057 99.9115 47.6057C99.9115 47.6057 107.431 47.8639 111.645 43.5916C115.882 39.3193 115.556 35.6573 115.556 31.2676C115.533 26.8545 115.859 23.169 111.645 18.9202ZM102.379 35.7981C102.379 36.6432 101.96 38.7324 99.8882 38.7324C97.8162 38.7324 97.3971 36.6432 97.3971 35.7981V26.3146C97.3971 24.2723 99.0966 23.7559 99.8882 23.7559C100.68 23.7559 102.379 24.2489 102.379 26.3146V35.7981ZM77.6546 18.9202C73.4174 14.6479 65.9209 14.9061 65.9209 14.9061C65.9209 14.9061 58.4243 14.6479 54.1871 18.9202C53.7448 19.3662 53.3257 19.8357 52.9532 20.3287C44.0598 13.3803 36.0743 9.41317 29.1831 5.98594V1.12678L23.9448 3.61504C11.2798 -1.57275 3.22446 -0.657256 1.29212 3.63852C1.29212 3.63852 -4.50491 11.338 15.6799 29.6479V46.9484H29.1598V40.2348C27.6465 39.2489 26.1332 38.1925 24.6432 37.0423C21.1976 34.4132 18.2641 31.9719 15.7032 29.6714V22.3944C18.7531 25.8451 22.804 29.7653 28.1354 34.2019L29.1831 35.047V28.0517C29.1831 26.432 29.5788 23.7794 31.6974 23.7794C33.816 23.7794 34.1652 25.3991 34.1652 27.3005V38.7324C38.3559 41.5963 42.8491 43.9202 47.5985 45.6808V23.6385C47.5985 19.2489 44.4788 14.8592 38.1463 14.8592C34.4679 14.8357 31.0456 16.7841 29.1831 20V7.25354C38.9379 12.1596 48.716 18.169 52.441 20.939C50.0663 24.3662 50.2759 27.5352 50.2759 31.1972C50.2759 35.5869 49.9499 39.2489 54.1871 43.5212C58.4243 47.7935 65.9209 47.5352 65.9209 47.5352C65.9209 47.5352 73.4407 47.7935 77.6546 43.5212C81.8918 39.2489 81.5426 35.5869 81.5426 31.1972C81.5426 26.8545 81.8918 23.169 77.6546 18.9202ZM15.6799 7.51176V22.3709C4.34196 9.57749 6.62353 4.53054 7.48493 3.80284C10.6279 1.12678 16.2154 1.9249 22.4781 4.2958L15.6799 7.51176ZM68.412 35.7981C68.412 36.6432 67.9929 38.7324 65.9209 38.7324C63.8488 38.7324 63.4298 36.6432 63.4298 35.7981V26.3146C63.4298 24.2723 65.1293 23.7559 65.9209 23.7559C66.7124 23.7559 68.412 24.2489 68.412 26.3146V35.7981Z" fill="#737373"/>
</g>
<defs>
<clipPath id="clip0_25_2685">
<rect width="149" height="50" fill="white" transform="translate(0.5)"/>
</clipPath>
</defs>
</svg>
